<svg xmlns="http://www.w3.org/2000/svg" viewBox="0 0 600 720" width="600" height="720">
<defs>
      <radialGradient id="cel" cx="50%" cy="40%" r="75%"><stop offset="0" stop-color="#fff6d6"/><stop offset="1" stop-color="#f0d494"/></radialGradient>
      <linearGradient id="rail" x1="0" y1="0" x2="1" y2="0"><stop offset="0" stop-color="#bdbdbd"/><stop offset=".5" stop-color="#f2f2f2"/><stop offset="1" stop-color="#9a9a9a"/></linearGradient></defs>
<rect width="600" height="720" fill="url(#cel)"/>
<path d="M380.0 240.0 L1020.0 240.0 L1017.3 301.0 L379.8 245.2Z" fill="#d8352b" opacity="0.16"/>
<path d="M376.4 260.5 L977.8 479.4 L954.4 535.8 L374.4 265.4Z" fill="#d8352b" opacity="0.16"/>
<path d="M366.0 278.6 L856.2 690.0 L815.0 735.0 L362.4 282.4Z" fill="#d8352b" opacity="0.16"/>
<path d="M350.0 292.0 L670.0 846.2 L615.8 874.4 L345.4 294.4Z" fill="#d8352b" opacity="0.16"/>
<path d="M330.4 299.1 L441.6 929.4 L381.0 937.3 L325.2 299.8Z" fill="#d8352b" opacity="0.16"/>
<path d="M309.6 299.1 L198.4 929.4 L138.8 916.1 L304.5 298.0Z" fill="#d8352b" opacity="0.16"/>
<path d="M290.0 292.0 L-30.0 846.2 L-81.5 813.4 L285.6 289.1Z" fill="#d8352b" opacity="0.16"/>
<path d="M274.0 278.6 L-216.2 690.0 L-253.4 641.5 L270.9 274.4Z" fill="#d8352b" opacity="0.16"/>
<path d="M263.6 260.5 L-337.8 479.4 L-356.1 421.2 L262.0 255.5Z" fill="#d8352b" opacity="0.16"/>
<path d="M260.0 240.0 L-380.0 240.0 L-377.3 179.0 L260.2 234.8Z" fill="#d8352b" opacity="0.16"/>
<path d="M263.6 219.5 L-337.8 0.6 L-314.4 -55.8 L265.6 214.6Z" fill="#d8352b" opacity="0.16"/>
<path d="M274.0 201.4 L-216.2 -210.0 L-175.0 -255.0 L277.6 197.6Z" fill="#d8352b" opacity="0.16"/>
<path d="M290.0 188.0 L-30.0 -366.2 L24.2 -394.4 L294.6 185.6Z" fill="#d8352b" opacity="0.16"/>
<path d="M309.6 180.9 L198.4 -449.4 L259.0 -457.3 L314.8 180.2Z" fill="#d8352b" opacity="0.16"/>
<path d="M330.4 180.9 L441.6 -449.4 L501.2 -436.1 L335.5 182.0Z" fill="#d8352b" opacity="0.16"/>
<path d="M350.0 188.0 L670.0 -366.2 L721.5 -333.4 L354.4 190.9Z" fill="#d8352b" opacity="0.16"/>
<path d="M366.0 201.4 L856.2 -210.0 L893.4 -161.5 L369.1 205.6Z" fill="#d8352b" opacity="0.16"/>
<path d="M376.4 219.5 L977.8 0.6 L996.1 58.8 L378.0 224.5Z" fill="#d8352b" opacity="0.16"/>
<circle cx="320" cy="240" r="200" fill="none" stroke="#c9a24a" stroke-width="16" opacity=".3"/>
<circle cx="320" cy="240" r="250" fill="none" stroke="#d8352b" stroke-width="4" opacity=".3"/>
<ellipse cx="122.5" cy="150.0" rx="25.0" ry="14.0" transform="rotate(0 122.5 150.0)" fill="#e0574a" opacity=".9"/>
<ellipse cx="114.4" cy="169.4" rx="25.0" ry="14.0" transform="rotate(45 114.4 169.4)" fill="#e0574a" opacity=".9"/>
<ellipse cx="95.0" cy="177.5" rx="25.0" ry="14.0" transform="rotate(90 95.0 177.5)" fill="#e0574a" opacity=".9"/>
<ellipse cx="75.6" cy="169.4" rx="25.0" ry="14.0" transform="rotate(135 75.6 169.4)" fill="#e0574a" opacity=".9"/>
<ellipse cx="67.5" cy="150.0" rx="25.0" ry="14.0" transform="rotate(180 67.5 150.0)" fill="#e0574a" opacity=".9"/>
<ellipse cx="75.6" cy="130.6" rx="25.0" ry="14.0" transform="rotate(225 75.6 130.6)" fill="#e0574a" opacity=".9"/>
<ellipse cx="95.0" cy="122.5" rx="25.0" ry="14.0" transform="rotate(270 95.0 122.5)" fill="#e0574a" opacity=".9"/>
<ellipse cx="114.4" cy="130.6" rx="25.0" ry="14.0" transform="rotate(315 114.4 130.6)" fill="#e0574a" opacity=".9"/>
<circle cx="95" cy="150" r="14.0" fill="#f4c542"/>
<ellipse cx="569.2" cy="170.0" rx="22.0" ry="12.3" transform="rotate(0 569.2 170.0)" fill="#e0574a" opacity=".9"/>
<ellipse cx="562.1" cy="187.1" rx="22.0" ry="12.3" transform="rotate(45 562.1 187.1)" fill="#e0574a" opacity=".9"/>
<ellipse cx="545.0" cy="194.2" rx="22.0" ry="12.3" transform="rotate(90 545.0 194.2)" fill="#e0574a" opacity=".9"/>
<ellipse cx="527.9" cy="187.1" rx="22.0" ry="12.3" transform="rotate(135 527.9 187.1)" fill="#e0574a" opacity=".9"/>
<ellipse cx="520.8" cy="170.0" rx="22.0" ry="12.3" transform="rotate(180 520.8 170.0)" fill="#e0574a" opacity=".9"/>
<ellipse cx="527.9" cy="152.9" rx="22.0" ry="12.3" transform="rotate(225 527.9 152.9)" fill="#e0574a" opacity=".9"/>
<ellipse cx="545.0" cy="145.8" rx="22.0" ry="12.3" transform="rotate(270 545.0 145.8)" fill="#e0574a" opacity=".9"/>
<ellipse cx="562.1" cy="152.9" rx="22.0" ry="12.3" transform="rotate(315 562.1 152.9)" fill="#e0574a" opacity=".9"/>
<circle cx="545" cy="170" r="12.3" fill="#f4c542"/>
<ellipse cx="112.0" cy="600.0" rx="20.0" ry="11.2" transform="rotate(0 112.0 600.0)" fill="#3a8f5c" opacity=".9"/>
<ellipse cx="101.0" cy="619.1" rx="20.0" ry="11.2" transform="rotate(60 101.0 619.1)" fill="#3a8f5c" opacity=".9"/>
<ellipse cx="79.0" cy="619.1" rx="20.0" ry="11.2" transform="rotate(120 79.0 619.1)" fill="#3a8f5c" opacity=".9"/>
<ellipse cx="68.0" cy="600.0" rx="20.0" ry="11.2" transform="rotate(180 68.0 600.0)" fill="#3a8f5c" opacity=".9"/>
<ellipse cx="79.0" cy="580.9" rx="20.0" ry="11.2" transform="rotate(240 79.0 580.9)" fill="#3a8f5c" opacity=".9"/>
<ellipse cx="101.0" cy="580.9" rx="20.0" ry="11.2" transform="rotate(300 101.0 580.9)" fill="#3a8f5c" opacity=".9"/>
<circle cx="90" cy="600" r="11.2" fill="#f4c542"/>
<ellipse cx="581.4" cy="610.0" rx="24.0" ry="13.4" transform="rotate(0 581.4 610.0)" fill="#e0574a" opacity=".9"/>
<ellipse cx="573.7" cy="628.7" rx="24.0" ry="13.4" transform="rotate(45 573.7 628.7)" fill="#e0574a" opacity=".9"/>
<ellipse cx="555.0" cy="636.4" rx="24.0" ry="13.4" transform="rotate(90 555.0 636.4)" fill="#e0574a" opacity=".9"/>
<ellipse cx="536.3" cy="628.7" rx="24.0" ry="13.4" transform="rotate(135 536.3 628.7)" fill="#e0574a" opacity=".9"/>
<ellipse cx="528.6" cy="610.0" rx="24.0" ry="13.4" transform="rotate(180 528.6 610.0)" fill="#e0574a" opacity=".9"/>
<ellipse cx="536.3" cy="591.3" rx="24.0" ry="13.4" transform="rotate(225 536.3 591.3)" fill="#e0574a" opacity=".9"/>
<ellipse cx="555.0" cy="583.6" rx="24.0" ry="13.4" transform="rotate(270 555.0 583.6)" fill="#e0574a" opacity=".9"/>
<ellipse cx="573.7" cy="591.3" rx="24.0" ry="13.4" transform="rotate(315 573.7 591.3)" fill="#e0574a" opacity=".9"/>
<circle cx="555" cy="610" r="13.4" fill="#f4c542"/>
<path d="M60 690 q35 -70 70 -18" stroke="#2f6f9f" stroke-width="5" fill="none" opacity=".3" stroke-linecap="round"/>
<path d="M135 690 q35 -70 70 -18" stroke="#2f6f9f" stroke-width="5" fill="none" opacity=".3" stroke-linecap="round"/>
<path d="M210 690 q35 -70 70 -18" stroke="#2f6f9f" stroke-width="5" fill="none" opacity=".3" stroke-linecap="round"/>
<path d="M285 690 q35 -70 70 -18" stroke="#2f6f9f" stroke-width="5" fill="none" opacity=".3" stroke-linecap="round"/>
<path d="M360 690 q35 -70 70 -18" stroke="#2f6f9f" stroke-width="5" fill="none" opacity=".3" stroke-linecap="round"/>
<path d="M435 690 q35 -70 70 -18" stroke="#2f6f9f" stroke-width="5" fill="none" opacity=".3" stroke-linecap="round"/>
<path d="M510 690 q35 -70 70 -18" stroke="#2f6f9f" stroke-width="5" fill="none" opacity=".3" stroke-linecap="round"/>
<path d="M20 720 L20 120 Q20 60 80 60 L200 60" stroke="url(#rail)" stroke-width="22" fill="none"/>
<text x="320" y="44" font-family="Impact, Arial Black, sans-serif" font-size="40" fill="#b3261e" text-anchor="middle" letter-spacing="4">花扇 HANA FAN</text>
<text x="320" y="84" font-family="Georgia, serif" font-size="13" fill="#5a2b12" text-anchor="middle" letter-spacing="5">DELUXE • 13 BALLS PER WIN • 1976</text>
<circle cx="320" cy="240" r="82" fill="#fff3c4" stroke="#c9a24a" stroke-width="5"/>
<ellipse cx="320" cy="188" rx="16" ry="32" fill="#f4c542" stroke="#7a1a12" stroke-width="1" transform="rotate(0 320 240)"/>
<ellipse cx="320" cy="188" rx="16" ry="32" fill="#e0574a" stroke="#7a1a12" stroke-width="1" transform="rotate(36 320 240)"/>
<ellipse cx="320" cy="188" rx="16" ry="32" fill="#f4c542" stroke="#7a1a12" stroke-width="1" transform="rotate(72 320 240)"/>
<ellipse cx="320" cy="188" rx="16" ry="32" fill="#e0574a" stroke="#7a1a12" stroke-width="1" transform="rotate(108 320 240)"/>
<ellipse cx="320" cy="188" rx="16" ry="32" fill="#f4c542" stroke="#7a1a12" stroke-width="1" transform="rotate(144 320 240)"/>
<ellipse cx="320" cy="188" rx="16" ry="32" fill="#e0574a" stroke="#7a1a12" stroke-width="1" transform="rotate(180 320 240)"/>
<ellipse cx="320" cy="188" rx="16" ry="32" fill="#f4c542" stroke="#7a1a12" stroke-width="1" transform="rotate(216 320 240)"/>
<ellipse cx="320" cy="188" rx="16" ry="32" fill="#e0574a" stroke="#7a1a12" stroke-width="1" transform="rotate(252 320 240)"/>
<ellipse cx="320" cy="188" rx="16" ry="32" fill="#f4c542" stroke="#7a1a12" stroke-width="1" transform="rotate(288 320 240)"/>
<ellipse cx="320" cy="188" rx="16" ry="32" fill="#e0574a" stroke="#7a1a12" stroke-width="1" transform="rotate(324 320 240)"/>
<circle cx="320" cy="240" r="24" fill="#b3261e" stroke="#c9a24a" stroke-width="3"/>
<text x="320" y="247" font-family="Arial Black, sans-serif" font-size="18" fill="#ffd86b" text-anchor="middle">777</text>
<rect x="244" y="334" width="152" height="52" rx="6" fill="#3a1a0a" stroke="#c9a24a" stroke-width="3"/>
<text x="320" y="412" font-family="Georgia, serif" font-size="12" fill="#5a2b12" text-anchor="middle" letter-spacing="3">リーチ • REACH</text>
<text x="320" y="592" font-family="Arial Black, sans-serif" font-size="14" fill="#7a1a12" text-anchor="middle" letter-spacing="3">大当り FEVER</text>
<text x="320" y="684" font-family="Georgia, serif" font-size="11" fill="#5a2b12" text-anchor="middle" letter-spacing="4">DHG 遊技機 • NAGOYA</text>
</svg>
